<svg id="ee028be7-91e4-473e-a855-dbdddf5fdf54" data-name="Layer 1" xmlns="http://www.w3.org/2000/svg" xmlns:xlink="http://www.w3.org/1999/xlink" viewBox="0 0 24 24"><defs><style>.bd0f513a-add7-4f49-9f30-91520c19d916{fill:none;}.b655c07f-cdde-4126-a89b-bec4f121b3fc{fill:red;}.f4831a37-ff16-4349-b626-cfc0e3fcc0e8{clip-path:url(#aa6fe026-4c29-452a-8255-9ead726eca08);}.bdadd3ca-de6f-40f7-ae38-caffd155679b{fill:#666;stroke:#666;stroke-miterlimit:10;stroke-width:0.3px;}</style><clipPath id="aa6fe026-4c29-452a-8255-9ead726eca08"><rect class="bd0f513a-add7-4f49-9f30-91520c19d916" x="4" y="1" width="21" height="12"/></clipPath></defs><path class="b655c07f-cdde-4126-a89b-bec4f121b3fc" d="M1.5,19.18,2.7,19c.14.95.58,1.42,1.33,1.42a1.21,1.21,0,0,0,.87-.29.9.9,0,0,0,.32-.72A.75.75,0,0,0,5.11,19a.76.76,0,0,0-.34-.29,7.53,7.53,0,0,0-1.1-.38,3.67,3.67,0,0,1-1.15-.52,2,2,0,0,1-.58-.73,2.17,2.17,0,0,1-.22-1A2.21,2.21,0,0,1,2,15a1.78,1.78,0,0,1,.76-.73A2.6,2.6,0,0,1,4,14.05a2.3,2.3,0,0,1,1.68.58,2.38,2.38,0,0,1,.64,1.67l-1.23.06a1.34,1.34,0,0,0-.35-.83,1.13,1.13,0,0,0-.77-.24,1.21,1.21,0,0,0-.76.21A.61.61,0,0,0,2.9,16a.65.65,0,0,0,.24.51A3.51,3.51,0,0,0,4.26,17a4.49,4.49,0,0,1,1.34.56,1.89,1.89,0,0,1,.63.77,2.59,2.59,0,0,1,.22,1.13,2.33,2.33,0,0,1-.6,1.63A2.37,2.37,0,0,1,4,21.73Q1.76,21.73,1.5,19.18Z"/><path class="b655c07f-cdde-4126-a89b-bec4f121b3fc" d="M8.86,21.6V15.43H7.05V14.18h4.83v1.25h-1.8V21.6Z"/><path class="b655c07f-cdde-4126-a89b-bec4f121b3fc" d="M12.72,21.6V14.24h1.22v6.11H17V21.6Z"/><g class="f4831a37-ff16-4349-b626-cfc0e3fcc0e8"><path class="bdadd3ca-de6f-40f7-ae38-caffd155679b" d="M22.19,7.47,17.08,2.36H9.3A2.67,2.67,0,0,0,6.64,5V19.69A2.67,2.67,0,0,0,9.3,22.36H19.53a2.67,2.67,0,0,0,2.66-2.67Zm-1.66-.11h-1a2.13,2.13,0,0,1-2.12-2.11l0-1Zm.55,12.33a1.55,1.55,0,0,1-1.55,1.56H9.3a1.55,1.55,0,0,1-1.55-1.56V5A1.54,1.54,0,0,1,9.3,3.47h6.92l.08,1.8a3.21,3.21,0,0,0,3.23,3.2h1.55Z"/></g></svg>